<svg width="49" height="47" viewBox="0 0 49 47" fill="none" xmlns="http://www.w3.org/2000/svg">
<path d="M47.6366 4.76792L44.2308 1.36209C43.2904 0.37084 41.6383 0.37084 40.647 1.36209L17.8737 24.1354L24.8633 31.125L47.6366 8.35167C48.6279 7.36042 48.6279 5.70834 47.6366 4.76792ZM12.7904 28.5833C10.7681 28.5833 8.82864 29.3867 7.39868 30.8167C5.96871 32.2466 5.16536 34.1861 5.16536 36.2083C5.16536 39.5379 2.21703 41.2917 0.0820312 41.2917C2.42036 44.3925 6.4362 46.375 10.2487 46.375C12.9451 46.375 15.531 45.3039 17.4376 43.3973C19.3442 41.4906 20.4154 38.9047 20.4154 36.2083C20.4154 34.1861 19.612 32.2466 18.1821 30.8167C16.7521 29.3867 14.8126 28.5833 12.7904 28.5833Z" fill="#2091F9"/>
</svg>
