<svg width="45" height="42" viewBox="0 0 45 42" fill="none" xmlns="http://www.w3.org/2000/svg">
<path d="M18.2486 41.65C22.402 40.0167 21.492 35.5134 19.392 32.6667C17.3153 29.75 14.4453 27.7434 11.552 25.8067C9.48756 24.5055 7.64432 22.8829 6.09197 21C5.43863 20.23 4.10863 18.8067 5.46197 18.5267C6.83863 18.2467 9.21863 19.6 10.432 20.1134C12.5553 21 14.6553 22.0267 16.6153 23.24L18.972 19.2734C15.332 16.87 10.6653 14.7467 6.3253 14.1167C3.85197 13.7434 1.23863 14.2567 0.398634 16.94C-0.348033 19.25 0.841967 21.5834 2.1953 23.4034C5.39197 27.6734 10.362 29.7267 14.072 33.4134C14.8653 34.1834 15.822 35.0934 16.2886 36.1667C16.7786 37.1934 16.662 37.2634 15.5653 37.2634C12.672 37.2634 9.0553 35 6.69864 33.5067L4.34197 37.4734C7.91197 39.6667 13.8853 43.0967 18.2486 41.65ZM44.1253 5.25004C44.6386 4.7367 44.6386 3.8967 44.1253 3.4067L41.092 0.373369C40.8476 0.137831 40.5214 0.00622559 40.182 0.00622559C39.8425 0.00622559 39.5164 0.137831 39.272 0.373369L36.892 2.75337L41.7453 7.6067L44.1253 5.25004ZM21.1653 18.48V23.3334H26.0186L40.3686 8.98337L35.5153 4.13004L21.1653 18.48Z" fill="#2091F9"/>
</svg>
