<svg width="33" height="34" viewBox="0 0 33 34" fill="none" xmlns="http://www.w3.org/2000/svg">
<path d="M30.7517 0.989624H1.29255C0.58409 0.989624 0.0117188 1.562 0.0117188 2.27046V31.7296C0.0117188 32.438 0.58409 33.0104 1.29255 33.0104H30.7517C31.4601 33.0104 32.0325 32.438 32.0325 31.7296V2.27046C32.0325 1.562 31.4601 0.989624 30.7517 0.989624ZM27.0533 10.3357H24.4956C22.4903 10.3357 22.1021 11.2883 22.1021 12.6892V15.7752H26.8892L26.2648 20.6064H22.1021V33.0104H17.1108V20.6104H12.9361V15.7752H17.1108V12.2129C17.1108 8.07822 19.6365 5.82476 23.3268 5.82476C25.096 5.82476 26.613 5.95685 27.0573 6.01689V10.3357H27.0533Z" fill="white"/>
</svg>
