<svg width="33" height="33" viewBox="0 0 33 33" fill="none" xmlns="http://www.w3.org/2000/svg">
<path d="M31.2126 0.385254H1.75349C1.04503 0.385254 0.472656 0.957625 0.472656 1.66609V31.1252C0.472656 31.8337 1.04503 32.406 1.75349 32.406H31.2126C31.9211 32.406 32.4934 31.8337 32.4934 31.1252V1.66609C32.4934 0.957625 31.9211 0.385254 31.2126 0.385254ZM27.5142 9.73132H24.9565C22.9512 9.73132 22.563 10.6839 22.563 12.0848V15.1708H27.3501L26.7257 20.002H22.563V32.406H17.5718V20.006H13.397V15.1708H17.5718V11.6085C17.5718 7.47385 20.0974 5.22039 23.7878 5.22039C25.5569 5.22039 27.0739 5.35248 27.5182 5.41252V9.73132H27.5142Z" fill="#2091F9"/>
</svg>
