<svg width="194" height="64" viewBox="0 0 194 64" fill="none" xmlns="http://www.w3.org/2000/svg">
<g clip-path="url(#clip0_66_4717)">
<path d="M187.716 38.8053L193.07 42.3562C191.332 44.9024 187.176 49.2712 179.99 49.2712C171.067 49.2712 164.422 42.403 164.422 33.6659C164.422 24.3685 171.138 18.061 179.239 18.061C187.387 18.061 191.379 24.5084 192.671 27.9892L193.375 29.7648L172.382 38.4082C173.979 41.5387 176.468 43.1272 179.99 43.1272C183.513 43.1272 185.955 41.3984 187.716 38.8053ZM171.255 33.1758L185.274 27.382C184.499 25.4433 182.198 24.0652 179.45 24.0652C175.952 24.0652 171.091 27.1488 171.255 33.1758Z" fill="#FF302F"/>
<path d="M154.301 2.15247H161.063V47.8462H154.301V2.1521V2.15247Z" fill="#20B15A"/>
<path d="M143.639 19.2755H150.167V47.0281C150.167 58.5447 143.334 63.287 135.256 63.287C127.648 63.287 123.069 58.1945 121.354 54.0597L127.342 51.5832C128.422 54.1295 131.029 57.1433 135.256 57.1433C140.445 57.1433 143.639 53.9427 143.639 47.9626V45.7201H143.404C141.854 47.5887 138.896 49.2706 135.138 49.2706C127.295 49.2706 120.109 42.4726 120.109 33.7126C120.109 24.9053 127.295 18.0376 135.138 18.0376C138.872 18.0376 141.854 19.6962 143.404 21.5183H143.639V19.2758V19.2755ZM144.108 33.7126C144.108 28.1993 140.422 24.1812 135.725 24.1812C130.982 24.1812 126.99 28.1993 126.99 33.7126C126.99 39.1553 130.982 43.1033 135.725 43.1033C140.422 43.127 144.109 39.1553 144.109 33.7126H144.108Z" fill="#3686F7"/>
<path d="M82.9856 33.5956C82.9856 42.5896 75.9411 49.2005 67.2994 49.2005C58.6582 49.2005 51.6133 42.5664 51.6133 33.5956C51.6133 24.5551 58.6582 17.9675 67.2994 17.9675C75.9411 17.9675 82.9856 24.5551 82.9856 33.5956ZM76.1288 33.5956C76.1288 27.9894 72.0426 24.1344 67.2994 24.1344C62.5562 24.1344 58.4701 27.9894 58.4701 33.5956C58.4701 39.1554 62.5562 43.0569 67.2994 43.0569C72.043 43.0569 76.1288 39.1554 76.1288 33.5956Z" fill="#FF302F"/>
<path d="M117.243 33.6659C117.243 42.6599 110.199 49.2708 101.557 49.2708C92.9156 49.2708 85.8711 42.6595 85.8711 33.6659C85.8711 24.6254 92.9156 18.061 101.557 18.061C110.199 18.061 117.243 24.6022 117.243 33.6659ZM110.363 33.6659C110.363 28.0597 106.277 24.2047 101.533 24.2047C96.7903 24.2047 92.7041 28.0597 92.7041 33.6659C92.7041 39.2257 96.7903 43.1272 101.533 43.1272C106.3 43.1272 110.363 39.2024 110.363 33.6659Z" fill="#FFBA40"/>
<path d="M25.8287 42.4262C15.9894 42.4262 8.28753 34.5302 8.28753 24.7419C8.28753 14.954 15.9894 7.05803 25.8287 7.05803C31.1358 7.05803 35.0101 9.13703 37.875 11.8003L42.5952 7.1049C38.6032 3.29715 33.2727 0.399902 25.8287 0.399902C12.35 0.400277 1.00781 11.3334 1.00781 24.7419C1.00781 38.1512 12.35 49.0839 25.8287 49.0839C33.1084 49.0839 38.6032 46.7012 42.9005 42.2627C47.315 37.8707 48.6769 31.7034 48.6769 26.7043C48.6769 25.139 48.4892 23.5273 48.2777 22.3359H25.8287V28.8302H41.8202C41.3505 32.8952 40.059 35.675 38.1569 37.5669C35.8556 39.8799 32.2161 42.4262 25.8287 42.4262Z" fill="#3686F7"/>
</g>
<defs>
<clipPath id="clip0_66_4717">
<rect width="193" height="63" fill="white" transform="translate(0.726562 0.303223)"/>
</clipPath>
</defs>
</svg>
