<svg width="151" height="61" viewBox="0 0 151 61" fill="none" xmlns="http://www.w3.org/2000/svg">
<path d="M0.574219 0.303223V4.4043H29.743V0.303223H0.574219ZM33.8757 0.303223V4.4043H75.4425C75.4425 4.4043 71.1966 0.303223 65.5732 0.303223H33.8757ZM83.5967 0.303223V4.4043H108.744L107.251 0.303223H83.5967ZM126.773 0.303223L125.281 4.4043H150.2V0.303223H126.773ZM0.574219 8.27883V12.3799H29.743V8.27883H0.574219ZM33.8757 8.28469V12.3799H80.2659C80.2659 12.3799 79.7242 9.22361 78.7791 8.28469H33.8757ZM83.5967 8.28469V12.3799H111.501L110.12 8.28469H83.5967ZM123.788 8.28469L122.406 12.3799H150.2V8.28469H123.788ZM8.95666 16.2544V20.3608H21.5889V16.2544H8.95666ZM42.2581 16.2544V20.3608H54.8903V16.2544H42.2581ZM67.1771 16.2544V20.3608H79.8093C79.8093 20.3608 80.6113 18.192 80.6113 16.2541H67.1771V16.2544ZM91.9791 16.2544V20.3608H114.375L112.883 16.2541H91.9791V16.2544ZM121.037 16.2544L119.538 20.3611H142.045V16.2544H121.037ZM8.95666 24.2359V28.3364H21.5889V24.2359H8.95666ZM42.2581 24.2359V28.3364H74.5235C74.5235 28.3364 77.2226 26.232 78.0825 24.2353H42.2581V24.2359ZM91.9791 24.2359V28.3364H104.611V26.0535L105.413 28.3364H128.553L129.413 26.0535V28.3364H142.045V24.2359H118.332L117.074 27.7098L115.809 24.2359H91.9791ZM8.95666 32.2109V36.312H21.5889V32.2109H8.95666ZM42.2581 32.2109V36.312H78.0825C77.2223 34.3218 74.5235 32.2109 74.5235 32.2109H42.2581ZM91.9791 32.2109V36.312H104.611V32.2109H91.9791ZM106.906 32.2109L108.434 36.312H125.784L127.236 32.2109H106.906ZM129.413 32.2109V36.312H142.045V32.2109H129.413ZM8.95666 40.1865V44.2876H21.5889V40.1865H8.95666ZM42.2581 40.1865V44.2876H54.8903V40.1865H42.2581ZM67.1771 40.1865V44.2876H80.6113C80.6113 42.3521 79.8093 40.1865 79.8093 40.1865H67.1771ZM91.9791 40.1865V44.2876H104.611V40.1865H91.9791ZM109.774 40.1865L111.255 44.2876H122.886L124.379 40.1865H109.774ZM129.413 40.1865V44.2876H142.045V40.1865H129.413ZM0.802511 48.1624V52.2691H29.9713V48.1621H0.802511V48.1624ZM33.8757 48.1624V52.2691H78.7791C79.7242 51.3287 80.2659 48.1621 80.2659 48.1621H33.8757V48.1624ZM83.825 48.1624V52.2691H104.611V48.1621H83.825V48.1624ZM112.648 48.1624L114.17 52.2691H120.088L121.517 48.1621H112.648V48.1624ZM129.413 48.1624V52.2691H150.428V48.1621H129.413V48.1624ZM0.802511 56.1436V60.2447H29.9713V56.1436H0.802511ZM33.8757 56.1436V60.2385H65.5732C71.1966 60.2385 75.4425 56.1433 75.4425 56.1433H33.8757V56.1436ZM83.825 56.1436V60.2447H104.611V56.1436H83.825ZM115.534 56.1436L116.998 60.2327L117.249 60.2385L118.736 56.1433H115.534V56.1436ZM129.413 56.1436V60.2447H150.428V56.1436H129.413Z" fill="#1F70C1"/>
</svg>
