<svg width="34" height="34" viewBox="0 0 34 34" fill="none" xmlns="http://www.w3.org/2000/svg">
<path d="M31.736 0.989624H2.27692C1.56847 0.989624 0.996094 1.562 0.996094 2.27046V31.7296C0.996094 32.438 1.56847 33.0104 2.27692 33.0104H31.736C32.4445 33.0104 33.0169 32.438 33.0169 31.7296V2.27046C33.0169 1.562 32.4445 0.989624 31.736 0.989624ZM10.4943 28.2753H5.74317V12.9934H10.4943V28.2753ZM8.12072 10.9041C7.57607 10.9041 7.04365 10.7425 6.59079 10.44C6.13794 10.1374 5.78498 9.70729 5.57655 9.2041C5.36812 8.70091 5.31359 8.14722 5.41984 7.61303C5.5261 7.07885 5.78837 6.58817 6.1735 6.20305C6.55862 5.81792 7.0493 5.55565 7.58348 5.4494C8.11766 5.34314 8.67136 5.39768 9.17455 5.6061C9.67773 5.81453 10.1078 6.16749 10.4104 6.62035C10.713 7.07321 10.8745 7.60562 10.8745 8.15027C10.8705 9.67126 9.6377 10.9041 8.12072 10.9041ZM28.2818 28.2753H23.5347V20.8425C23.5347 19.0694 23.5027 16.7919 21.0651 16.7919C18.5955 16.7919 18.2153 18.7211 18.2153 20.7144V28.2753H13.4722V12.9934H18.0271V15.0828H18.0912C18.7236 13.882 20.2726 12.6132 22.5861 12.6132C27.3972 12.6132 28.2818 15.7792 28.2818 19.8939V28.2753Z" fill="white"/>
</svg>
