<svg width="33" height="33" viewBox="0 0 33 33" fill="none" xmlns="http://www.w3.org/2000/svg">
<path d="M31.197 0.385254H1.73786C1.0294 0.385254 0.457031 0.957625 0.457031 1.66609V31.1252C0.457031 31.8337 1.0294 32.406 1.73786 32.406H31.197C31.9054 32.406 32.4778 31.8337 32.4778 31.1252V1.66609C32.4778 0.957625 31.9054 0.385254 31.197 0.385254ZM9.95519 27.671H5.20411V12.389H9.95519V27.671ZM7.58165 10.2997C7.03701 10.2997 6.50459 10.1382 6.05173 9.83559C5.59887 9.533 5.24591 9.10292 5.03749 8.59973C4.82906 8.09654 4.77453 7.54285 4.88078 7.00866C4.98704 6.47448 5.24931 5.9838 5.63443 5.59868C6.01956 5.21355 6.51023 4.95128 7.04442 4.84503C7.5786 4.73877 8.13229 4.7933 8.63548 5.00173C9.13867 5.21016 9.56875 5.56312 9.87134 6.01598C10.1739 6.46884 10.3354 7.00125 10.3354 7.5459C10.3314 9.06689 9.09864 10.2997 7.58165 10.2997ZM27.7427 27.671H22.9957V20.2381C22.9957 18.465 22.9636 16.1875 20.5261 16.1875C18.0565 16.1875 17.6762 18.1168 17.6762 20.1101V27.671H12.9331V12.389H17.4881V14.4784H17.5521C18.1845 13.2776 19.7335 12.0088 22.047 12.0088C26.8582 12.0088 27.7427 15.1748 27.7427 19.2895V27.671Z" fill="#2091F9"/>
</svg>
