<svg width="27" height="22" viewBox="0 0 27 22" fill="none" xmlns="http://www.w3.org/2000/svg">
<path d="M25.3125 0.904785H0.9375C0.418945 0.904785 0 1.32373 0 1.84229V20.5923C0 21.1108 0.418945 21.5298 0.9375 21.5298H25.3125C25.8311 21.5298 26.25 21.1108 26.25 20.5923V1.84229C26.25 1.32373 25.8311 0.904785 25.3125 0.904785ZM24.1406 4.15088V19.4204H2.10938V4.15088L1.30078 3.521L2.45215 2.0415L3.70605 3.01709H22.5469L23.8008 2.0415L24.9521 3.521L24.1406 4.15088ZM22.5469 3.01416L13.125 10.3384L3.70312 3.01416L2.44922 2.03857L1.29785 3.51807L2.10645 4.14795L12.1143 11.9292C12.4021 12.1528 12.7561 12.2742 13.1206 12.2742C13.4851 12.2742 13.8391 12.1528 14.127 11.9292L24.1406 4.15088L24.9492 3.521L23.7979 2.0415L22.5469 3.01416Z" fill="#2091F9"/>
</svg>
