<svg width="678" height="515" viewBox="0 0 678 515" fill="none" xmlns="http://www.w3.org/2000/svg">
<g clip-path="url(#clip0_66_3842)">
<path d="M364.712 514.303C500.997 514.303 611.478 482.686 611.478 443.684C611.478 404.682 500.997 373.065 364.712 373.065C228.426 373.065 117.945 404.682 117.945 443.684C117.945 482.686 228.426 514.303 364.712 514.303Z" fill="#F5F5F5"/>
<path d="M599.495 168.969C599.495 168.969 555.782 212.753 580.459 277.723C605.136 342.692 538.156 450.739 538.156 450.739C538.156 450.739 538.861 450.633 540.208 450.4C629.989 434.525 674.597 331.676 624.673 255.273C606.137 226.87 590.873 193.545 599.495 168.969Z" fill="#2091F9"/>
<path d="M599.495 168.969C599.495 168.969 574.819 222.64 599.495 266.424C624.172 310.207 603.726 433.084 538.156 450.739" stroke="#535461" stroke-width="2" stroke-miterlimit="10"/>
<path d="M677.343 346.061C677.343 346.061 627.461 338.102 622.914 382.881C618.366 427.661 527.027 433.861 527.027 433.861C527.027 433.861 527.62 434.271 528.741 435.005C604.181 484.608 676.3 466.6 665.435 400.734C661.367 376.25 661.691 351.654 677.343 346.061Z" fill="#2091F9"/>
<path opacity="0.2" d="M677.343 346.061C677.343 346.061 627.461 338.102 622.914 382.881C618.366 427.661 527.027 433.861 527.027 433.861C527.027 433.861 527.62 434.271 528.741 435.005C604.181 484.608 676.3 466.6 665.435 400.734C661.367 376.25 661.691 351.654 677.343 346.061Z" fill="#F5F5F5"/>
<path d="M677.344 346.061C677.344 346.061 638.623 354.577 641.803 389.844C644.983 425.111 584.278 467.37 527 433.847" stroke="#535461" stroke-width="2" stroke-miterlimit="10"/>
<path opacity="0.2" d="M107.245 0.359615C101.562 0.161882 95.7386 0.359615 90.4084 2.35107C75.9056 7.76754 69.0314 25.4858 71.2664 40.8313C73.5014 56.1768 82.6952 69.5026 92.2345 81.7126C101.774 93.9227 112.11 105.977 117.341 120.553C119.95 127.834 121.17 135.99 118.519 143.257C114.429 154.464 102.098 160.728 90.2604 162.028C78.4226 163.327 66.5355 160.792 54.6555 159.909C49.6708 159.556 44.5451 159.514 39.8495 161.152C34.6956 162.939 30.4019 166.583 26.4536 170.382C11.0484 185.282 -1.2829 205.621 0.712379 226.976C2.96853 251.184 23.0906 270.322 45.1303 280.583C52.4276 283.987 60.1478 286.741 66.5708 291.599C83.4919 304.41 87.2921 328.413 85.6071 349.606C83.922 370.798 78.1829 392.012 81.3768 413.021C85.1347 437.456 101.767 459.524 124.201 469.834C144.189 479.015 169.204 478.443 186.951 465.456C195.601 459.1 202.144 450.336 207.834 441.248C216.422 427.536 223.39 412.872 228.598 397.549C231.072 390.268 233.399 382.436 239.173 377.373C242.699 374.259 247.267 372.514 251.787 371.159C265.408 367.077 279.756 365.954 293.504 362.324C307.253 358.694 321.086 351.929 328.559 339.832C339.135 322.665 334.2 300.709 334.249 280.512C334.333 234.497 361.823 193.298 371.969 148.455C375.283 133.794 376.516 117.573 369.113 104.501C364.079 95.5822 355.598 89.2265 346.679 84.2832C327.079 73.3796 304.799 68.5281 282.879 63.8037C252.414 57.2502 215.42 56.4028 191.808 35.203C169.148 14.8647 138.147 0.359615 107.245 0.359615Z" fill="#2091F9"/>
<g opacity="0.5">
<path opacity="0.5" d="M217.754 178.468C217.752 167.376 216.018 156.354 212.614 145.799L204.154 119.522C204.154 119.084 204.154 118.653 204.154 118.223C204.415 101.38 191.308 92.9764 186.26 93.8874C181.092 94.8195 166.751 87.6164 166.751 87.6164V87.8141C165.768 86.6804 164.881 85.4662 164.1 84.1843C166.578 82.3768 168.67 80.0915 170.253 77.4626C171.836 74.8337 172.879 71.9143 173.32 68.876C173.76 65.8377 173.59 62.7418 172.82 59.7703C172.049 56.7987 170.692 54.0115 168.831 51.5725C170.381 50.406 171.563 48.8174 172.236 46.9964C173.407 43.6985 172.511 39.9345 170.607 36.9967C169.798 35.7704 168.852 34.6403 167.787 33.6282C166.175 32.0281 164.414 30.5857 162.528 29.3205C157.825 26.0579 152.657 23.2543 147.017 22.2586C146.041 22.0277 145.024 22.0277 144.048 22.2586C143.201 22.601 142.395 23.0368 141.644 23.558C137.781 25.7613 132.972 24.8079 128.516 24.5749C124.06 24.3418 118.646 25.5918 117.235 29.7795C116.798 31.0718 116.827 32.4701 116.53 33.7977C115.825 37.0462 113.322 39.5673 111.391 42.272C109.459 44.9767 108.013 48.6277 109.621 51.5654C110.171 52.5541 111.031 53.4651 111.031 54.595C111.031 55.4071 110.552 56.1345 110.326 56.9113C109.84 58.6768 110.756 60.4422 112.166 61.7204C112.774 62.3766 113.489 62.9236 114.281 63.3376C116.516 64.4816 119.09 64.8347 121.367 65.894C122.504 66.4287 123.547 67.1442 124.455 68.0126C125.568 69.1795 126.438 70.5566 127.014 72.0636C127.59 73.5707 127.861 75.1775 127.811 76.7905L128.284 76.84C128.284 76.9812 128.284 77.1154 128.284 77.2566C128.777 77.3131 129.299 77.3625 129.813 77.3837C130.554 78.5808 131.401 79.7083 132.345 80.7522C132.185 81.3549 132.004 81.9669 131.802 82.5883C130.145 83.7394 116.594 92.7786 101.182 90.6036C84.7328 88.2802 75.3275 160.312 75.3275 160.312C74.7178 164.431 74.4208 168.59 74.4391 172.755C74.3686 183.347 76.5895 197.21 88.9631 195.169L95.5412 193.001V228.628C95.5412 228.628 96.4789 238.388 93.1934 244.871C89.9078 251.353 103.536 249.051 103.536 249.051C103.536 249.051 104.058 249.595 105.017 250.52L104.714 251.375L105.116 251.784C103.323 257.922 100.906 263.859 97.9031 269.503L98.2908 269.7C98.0441 270.173 97.9031 270.406 97.9031 270.406C97.9031 270.406 102.965 272.998 109.931 276.338C115.529 295.293 127.783 339.189 123.75 347.551L123.863 347.791C124.617 349.358 128.833 358.602 127.98 367.07C127.212 374.64 137.675 409.039 141.581 421.531L139.734 421.905L146.312 445.605L144.901 460.943C144.901 460.943 136.913 482.32 155.71 478.139C174.506 473.958 169.338 456.763 169.338 456.763L169.811 421.905C169.811 421.905 167.999 420.895 165.764 419.928C164.227 415.768 160.878 405.938 160.878 399.138C160.878 390.31 154.765 352.197 154.765 352.197V352.12V351.971V351.929L154.73 351.421V351.336C154.73 350.863 154.652 350.213 154.596 349.422V349.38C153.891 339.076 151.776 304.071 153.32 285.823C154.678 284.895 156.09 284.051 157.55 283.294C162.126 294.876 173.921 326.167 173.167 339.295C172.229 355.538 172.934 342.784 173.167 340.708C173.237 340.065 173.287 340.842 173.308 342.586C173.308 342.904 173.308 343.257 173.308 343.631C173.308 344.006 173.308 344.422 173.308 344.853C173.308 345.284 173.308 345.75 173.308 346.265C173.308 346.51 173.308 346.76 173.308 347.014C173.308 347.522 173.308 348.054 173.308 348.61C173.308 348.888 173.308 349.17 173.308 349.457C173.308 350.87 173.308 352.437 173.258 354.069C173.258 354.394 173.258 354.723 173.258 355.057C173.258 356.053 173.258 357.07 173.209 358.101C173.209 359.513 173.153 360.883 173.125 362.303C173.054 365.481 172.962 368.694 172.85 371.702C172.85 372.037 172.838 372.368 172.814 372.698C172.791 373.357 172.765 374.002 172.737 374.633C172.709 375.264 172.68 375.881 172.652 376.483C172.624 377.081 172.593 377.663 172.56 378.227C172.525 378.891 172.483 379.527 172.448 380.134L169.895 379.767L169.353 385.642C168.497 394.971 169.701 404.373 172.878 413.184C173.752 415.599 174.429 417.598 174.577 418.311C175.049 420.634 174.577 437.378 174.577 437.378C174.577 437.378 177.397 459.22 190.56 455.033C196.483 453.147 199.359 447.413 200.734 441.664C202.26 435.001 201.691 428.028 199.105 421.7C197.237 416.997 195.326 410.401 196.673 405.303C199.021 396.475 199.021 383.926 199.021 383.926L197.569 383.722C197.93 383.032 198.258 382.325 198.549 381.603C198.549 381.603 198.076 349.535 202.306 345.354C204.633 343.052 204.422 337.523 203.717 333.003C202.709 326.462 202.473 319.826 203.011 313.23C203.301 309.833 203.717 306.874 204.203 305.822C205.444 303.364 206.685 278.591 201.192 266.671L202.321 266.318L202.144 265.442L202.321 265.385C203.149 267.6 204.09 269.771 205.141 271.889C205.418 272.107 205.737 272.266 206.078 272.356C221.3 269.679 221.914 255.449 221.068 247.681C221.709 247.992 222.062 248.19 222.062 248.19L223.472 227.71C224.917 224.441 225.453 220.267 225.418 215.755C225.481 199.625 217.754 178.468 217.754 178.468ZM200.974 236.679C199.93 227.76 198.485 219.363 198.485 219.363L191.435 194.265V185.127L202.617 226.933L200.974 236.679Z" fill="url(#paint0_linear_66_3842)"/>
</g>
<path d="M169.274 373.771L168.752 379.513C167.929 388.635 169.096 397.828 172.172 406.454C173.011 408.82 173.666 410.769 173.807 411.468C174.259 413.742 173.807 430.09 173.807 430.09C173.807 430.09 176.529 451.438 189.227 447.349C194.938 445.513 197.687 439.899 199.041 434.285C200.509 427.774 199.958 420.969 197.462 414.78C195.657 410.183 193.81 403.721 195.114 398.756C197.384 390.127 197.384 377.867 197.384 377.867L169.274 373.771Z" fill="#5A5773"/>
<path d="M155.672 275.216C155.672 275.216 173.354 318.364 172.445 334.253C171.535 350.142 172.219 337.657 172.445 335.616C172.847 331.979 172.445 375.163 171.084 380.106C171.084 380.106 189.676 393.728 196.931 375.565C196.931 375.565 196.48 344.232 200.555 340.143C202.797 337.897 202.579 332.488 201.916 328.074C200.938 321.689 200.701 315.213 201.211 308.774C201.486 305.455 201.867 302.531 202.36 301.535C203.721 298.809 205.082 267.928 196.917 259.298L155.672 275.216Z" fill="#605D82"/>
<path opacity="0.1" d="M173.355 380.127C174.716 375.134 175.118 331.979 174.716 335.637C174.49 337.678 173.806 350.171 174.716 334.274C175.625 318.378 157.943 275.237 157.943 275.237L197.503 259.997C197.32 259.764 197.129 259.545 196.939 259.341L155.68 275.237C155.68 275.237 173.362 318.385 172.453 334.274C171.543 350.164 172.227 337.678 172.453 335.637C172.855 332 172.453 375.184 171.092 380.127C171.092 380.127 178.516 385.565 185.813 384.986C179.32 384.499 173.355 380.127 173.355 380.127Z" fill="black"/>
<path d="M140.254 415.098L146.599 438.261L145.239 453.246C145.239 453.246 137.532 474.135 155.666 470.046C173.8 465.957 168.815 449.157 168.815 449.157L169.267 415.098C169.267 415.098 162.012 411.009 158.839 411.468C155.666 411.927 140.254 415.098 140.254 415.098Z" fill="#5A5773"/>
<path d="M108.973 264.319C108.973 264.319 129.828 331.986 124.843 342.431C124.843 342.431 129.828 352.424 128.925 361.498C128.023 370.573 143.435 419.173 143.435 419.173L166.11 415.084C166.11 415.084 160.667 401.461 160.667 392.832C160.667 384.202 154.772 346.929 154.772 346.929C154.772 346.929 149.788 278.803 155.682 271.537L108.973 264.319Z" fill="#605D82"/>
<g opacity="0.1">
<path opacity="0.1" d="M153.921 277.073C150.163 292.496 154.316 349.253 154.316 349.253C154.316 349.253 160.21 386.49 160.21 395.155C160.21 401.744 163.376 411.235 164.878 415.359L166.104 415.14C166.104 415.14 160.662 401.518 160.662 392.888C160.662 384.259 154.767 346.986 154.767 346.986C154.767 346.986 150.974 295.116 153.921 277.073Z" fill="black"/>
<path opacity="0.1" d="M124.844 342.431L124.957 342.664C124.992 342.431 125.027 342.184 125.048 341.958C124.988 342.119 124.92 342.277 124.844 342.431V342.431Z" fill="black"/>
<path opacity="0.1" d="M154.653 273.768C154.859 272.985 155.205 272.245 155.675 271.586L108.973 264.319C108.973 264.319 109.248 265.202 109.72 266.777L154.653 273.768Z" fill="black"/>
</g>
<path d="M217.788 239.793C217.788 239.793 224.592 265.216 204.188 268.86C203.857 268.774 203.547 268.62 203.278 268.408C203.278 268.408 191.49 245.245 200.557 236.164L217.788 239.793Z" fill="#FAC3CA"/>
<path d="M134.361 70.8657C134.361 70.8657 135.722 89.9328 120.761 99.0215C105.8 108.11 152.488 133.081 152.488 133.081L176.975 94.0217C176.975 94.0217 166.554 95.3705 160.208 77.2214L134.361 70.8657Z" fill="#FAC3CA"/>
<path opacity="0.1" d="M124.382 100.37C124.382 100.37 147.508 148.511 168.363 103.096L200.556 262.949C200.556 262.949 150.674 278.394 150.229 285.66C149.785 292.927 99.9102 267.045 99.9102 267.045C99.9102 267.045 110.789 247.06 108.075 234.801C105.36 222.541 124.382 100.37 124.382 100.37Z" fill="black"/>
<path d="M124.382 99.4592C124.382 99.4592 147.508 147.6 168.363 102.185L200.556 262.045C200.556 262.045 150.674 277.49 150.229 284.756C149.785 292.023 99.9102 266.134 99.9102 266.134C99.9102 266.134 110.789 246.149 108.075 233.889C105.36 221.63 124.382 99.4592 124.382 99.4592Z" fill="#E1E7EF"/>
<path d="M147.06 427.816C147.06 427.816 141.166 414.646 154.766 414.646C168.366 414.646 166.103 426.453 166.103 426.453L147.06 427.816Z" fill="#5A5773"/>
<path d="M177.892 393.75C177.892 393.75 172.449 379.668 186.056 379.216C199.663 378.764 192.86 391.928 192.86 391.928L177.892 393.75Z" fill="#5A5773"/>
<path opacity="0.1" d="M166.328 89.2266C166.328 89.2266 180.154 96.2885 185.146 95.3563C190.138 94.4241 203.28 103.075 202.377 120.334L210.57 146.082C213.847 156.406 215.512 167.175 215.505 178.009V178.009C215.505 178.009 227.294 210.705 220.948 225.239L219.587 245.224C219.587 245.224 209.16 239.32 198.274 241.135L201.016 224.815L188.749 178.482L168.345 128.978L166.328 89.2266Z" fill="black"/>
<path d="M166.328 88.3298C166.328 88.3298 180.154 95.3917 185.146 94.4596C190.138 93.5274 203.28 102.178 202.377 119.437L210.57 145.185C213.847 155.509 215.512 166.279 215.505 177.112V177.112C215.505 177.112 227.294 209.809 220.948 224.342L219.587 244.327C219.587 244.327 209.16 238.423 198.274 240.238L200.995 223.89L188.749 177.571L168.366 128.067L166.328 88.3298Z" fill="#67647E"/>
<path opacity="0.1" d="M189.228 143.511V194.83L196.032 219.356C196.032 219.356 200.565 246.149 199.204 254.327C197.844 262.504 176.079 264.319 170.185 257.504C164.291 250.69 167.463 192.535 167.463 192.535L166.328 107.404L167.238 104.678L189.228 143.511Z" fill="black"/>
<path d="M190.158 141.244V192.563L196.961 217.089C196.961 217.089 201.495 243.882 200.134 252.06C198.773 260.237 177.009 262.052 171.114 255.237C165.22 248.423 168.393 190.268 168.393 190.268L167.258 105.116L190.158 141.244Z" fill="#67647E"/>
<path opacity="0.1" d="M98.7695 183.934L113.279 229.13L106.476 248.43C106.476 248.43 138.668 282.489 159.072 266.141C159.072 266.141 161.342 196.652 156.802 180.304C152.261 163.956 130.504 108.979 130.504 108.979L125.998 94.4666L101.97 108.089L98.7695 183.934Z" fill="black"/>
<path d="M97.6332 181.66V226.15C97.6332 226.15 98.5427 235.69 95.363 242.046C92.1832 248.402 105.339 246.135 105.339 246.135C105.339 246.135 137.532 280.194 157.936 263.846C157.936 263.846 160.206 194.357 155.666 178.009C151.125 161.66 129.367 106.684 129.367 106.684L124.834 92.1501L100.806 105.773L97.6332 181.66Z" fill="#67647E"/>
<path opacity="0.1" d="M132.773 84.248C132.773 84.248 118.947 94.4666 103.077 92.1927C87.2059 89.9187 78.139 160.319 78.139 160.319C78.139 160.319 72.2448 196.652 91.2881 193.474L133.457 179.393C133.457 179.393 124.39 169.852 125.751 157.593L105.34 165.764L106.256 126.711L132.773 84.248Z" fill="black"/>
<path opacity="0.1" d="M79.0413 159.408C79.0413 159.408 73.1472 195.741 92.1905 192.563L134.359 178.482C134.359 178.482 125.292 168.948 126.653 156.682L106.256 164.86L79.0413 159.408Z" fill="black"/>
<path d="M125.652 161.47C125.652 161.47 139.803 142.833 150.223 151.781C160.644 160.728 129.389 177.126 129.389 177.126L125.652 161.47Z" fill="#FAC3CA"/>
<path d="M132.773 83.3369C132.773 83.3369 118.947 93.5555 103.077 91.2815C87.2059 89.0076 78.139 159.408 78.139 159.408C78.139 159.408 72.2448 195.741 91.2881 192.563L133.457 178.482C133.457 178.482 124.39 168.941 125.751 156.682L105.34 164.859L106.256 125.8L129.382 106.733L132.773 83.3369Z" fill="#67647E"/>
<path opacity="0.1" d="M160.659 78.1113L134.812 71.7556C134.812 71.7556 136.158 73.281 134.586 79.2483C138.746 84.0292 143.857 90.3778 150.682 90.3778C155.566 90.387 160.321 88.8085 164.233 85.8794C162.773 83.4225 161.575 80.8189 160.659 78.1113Z" fill="black"/>
<path d="M150.229 89.4739C162.752 89.4739 172.903 79.3058 172.903 66.7628C172.903 54.2198 162.752 44.0518 150.229 44.0518C137.706 44.0518 127.555 54.2198 127.555 66.7628C127.555 79.3058 137.706 89.4739 150.229 89.4739Z" fill="#FAC3CA"/>
<path opacity="0.1" d="M158.825 56.9042C164.085 56.0073 169.867 53.6699 171.629 48.6277C172.757 45.4004 171.897 41.7282 170.057 38.854C168.217 35.9798 165.509 33.7694 162.717 31.7921C158.184 28.6001 153.185 25.8601 147.728 24.8997C146.787 24.6744 145.806 24.6744 144.866 24.8997C144.047 25.2352 143.269 25.6615 142.546 26.1708C138.816 28.3247 134.177 27.3926 129.855 27.1666C125.533 26.9406 120.351 28.1623 118.99 32.2511C118.567 33.5152 118.596 34.8782 118.285 36.1776C117.58 39.3554 115.19 41.8271 113.35 44.4753C111.51 47.1235 110.093 50.7039 111.644 53.5569C112.173 54.5244 113.054 55.4141 113.054 56.5158C112.918 57.2988 112.681 58.0608 112.349 58.7827C111.707 61.1272 113.576 63.493 115.733 64.6087C117.89 65.7245 120.372 66.0705 122.572 67.1086C124.631 68.1263 126.355 69.7148 127.538 71.6853C128.722 73.6558 129.316 75.9254 129.249 78.2241C131.251 78.4571 133.585 78.5772 134.938 77.08C135.545 76.4092 135.841 75.5123 136.391 74.7991C137.096 73.8669 138.196 73.3161 139.098 72.5675C143.843 68.6623 140.473 63.267 143.159 59.0581C144.569 56.8901 146.811 57.5539 149.082 57.5892C152.344 57.6657 155.606 57.4363 158.825 56.9042V56.9042Z" fill="black"/>
<path d="M158.372 56.4523C163.632 55.5554 169.413 53.218 171.176 48.1758C172.304 44.9485 171.444 41.2763 169.604 38.4021C167.764 35.5279 165.056 33.3175 162.264 31.3402C157.731 28.1482 152.732 25.4082 147.275 24.4478C146.334 24.2225 145.353 24.2225 144.412 24.4478C143.594 24.7833 142.816 25.2096 142.093 25.7189C138.363 27.8728 133.724 26.9407 129.402 26.7147C125.08 26.4887 119.898 27.7104 118.537 31.7992C118.114 33.0633 118.142 34.4263 117.832 35.7257C117.127 38.9035 114.737 41.3752 112.897 44.0234C111.057 46.6716 109.64 50.252 111.191 53.105C111.719 54.0725 112.601 54.9622 112.601 56.0639C112.465 56.8469 112.228 57.6089 111.896 58.3308C111.254 60.6753 113.122 63.0411 115.28 64.1568C117.437 65.2726 119.919 65.6186 122.119 66.6567C124.186 67.6734 125.917 69.265 127.105 71.2413C128.293 73.2175 128.887 75.4947 128.817 77.8004C130.819 78.0335 133.153 78.1535 134.507 76.6564C135.113 75.9855 135.409 75.0887 135.959 74.3754C136.664 73.4432 137.764 72.8924 138.666 72.1438C143.411 68.2386 140.041 62.8433 142.727 58.6344C144.137 56.4664 146.38 57.1303 148.65 57.1656C151.906 57.2314 155.161 56.9926 158.372 56.4523Z" fill="#4A4347"/>
<path opacity="0.1" d="M185.82 132.841C185.82 132.841 190.805 158.73 188.542 168.722C187.159 174.535 187.364 180.614 189.134 186.321" fill="black"/>
<path opacity="0.1" d="M105.24 143.737C105.24 143.737 103.069 160.997 106.686 164.626Z" fill="black"/>
<path d="M231.847 356.434C232.127 356.434 232.396 356.323 232.594 356.124C232.793 355.926 232.904 355.656 232.904 355.375C232.904 355.094 232.793 354.825 232.594 354.626C232.396 354.428 232.127 354.316 231.847 354.316C231.566 354.316 231.297 354.428 231.099 354.626C230.9 354.825 230.789 355.094 230.789 355.375C230.789 355.656 230.9 355.926 231.099 356.124C231.297 356.323 231.566 356.434 231.847 356.434Z" fill="black"/>
<g opacity="0.5">
<path opacity="0.5" d="M557.486 233.028V232.442L365.121 84.2831C365 84.1931 364.853 84.1445 364.702 84.1445C364.551 84.1445 364.404 84.1931 364.282 84.2831L171.91 232.442V462.095H172.277V462.462H557.86V232.809L557.486 233.028Z" fill="url(#paint1_linear_66_3842)"/>
</g>
<path d="M550.847 455.69H178.582V233.946L364.714 90.5896L550.847 233.946V455.69Z" fill="white"/>
<path d="M537.449 442.547H191.977V236.764L364.713 103.725L537.449 236.764V442.547Z" fill="#E0E0E0"/>
<path d="M423.316 100.65L212.578 155.986L282.843 424.447L493.582 369.11L423.316 100.65Z" fill="#2091F9"/>
<path d="M474.699 141.435H256.84V418.968H474.699V141.435Z" fill="#F5F5F5"/>
<path opacity="0.05" d="M180.344 234.299L366.476 345.171L180.344 456.043V234.299Z" fill="black"/>
<path d="M178.934 234.299L365.066 345.171L178.934 456.043V234.299Z" fill="white"/>
<path opacity="0.05" d="M549.789 234.299L363.656 345.171L549.789 456.043V234.299Z" fill="black"/>
<path d="M551.199 234.299L365.066 345.171L551.199 456.043V234.299Z" fill="white"/>
<path opacity="0.05" d="M178.934 452.512L365.066 307.037L551.198 452.512H178.934Z" fill="black"/>
<path d="M178.934 456.042L365.066 310.567L551.198 456.042H178.934Z" fill="white"/>
<path d="M216.758 472.885C216.758 472.885 207.409 441.107 218.514 417.704C223.232 407.921 224.654 396.869 222.568 386.208C221.538 381.155 220.049 376.207 218.119 371.427" stroke="#535461" stroke-width="2" stroke-miterlimit="10"/>
<path d="M225.023 356.639C225.023 360.537 217.972 371.829 217.972 371.829C217.972 371.829 210.922 360.53 210.922 356.639C210.922 354.766 211.665 352.97 212.987 351.646C214.309 350.321 216.102 349.577 217.972 349.577C219.842 349.577 221.636 350.321 222.958 351.646C224.28 352.97 225.023 354.766 225.023 356.639Z" fill="#6C63FF"/>
<path d="M236.692 378.221C234.577 381.49 222.535 387.14 222.535 387.14C222.535 387.14 222.754 373.821 224.869 370.551C225.923 369.073 227.506 368.058 229.289 367.718C231.071 367.379 232.916 367.74 234.439 368.728C235.962 369.716 237.046 371.254 237.466 373.022C237.885 374.79 237.608 376.652 236.692 378.221Z" fill="#6C63FF"/>
<path d="M236.154 415.091C232.678 416.842 219.438 415.634 219.438 415.634C219.438 415.634 226.34 404.251 229.809 402.499C230.639 402.034 231.555 401.742 232.5 401.64C233.446 401.539 234.403 401.63 235.313 401.909C236.222 402.188 237.067 402.648 237.794 403.262C238.522 403.876 239.117 404.631 239.546 405.481C239.974 406.332 240.227 407.261 240.287 408.212C240.348 409.163 240.216 410.116 239.899 411.015C239.582 411.913 239.087 412.738 238.443 413.44C237.8 414.141 237.021 414.705 236.154 415.098V415.091Z" fill="#6C63FF"/>
<path d="M229.499 442.908C226.368 445.224 213.113 446.269 213.113 446.269C213.113 446.269 217.992 433.882 221.123 431.566C222.629 430.56 224.464 430.172 226.248 430.484C228.031 430.796 229.627 431.783 230.704 433.241C231.781 434.699 232.256 436.516 232.032 438.316C231.807 440.115 230.9 441.759 229.499 442.908V442.908Z" fill="#6C63FF"/>
<path d="M207.722 387.888C210.542 390.6 223.508 393.418 223.508 393.418C223.508 393.418 220.328 380.487 217.536 377.776C216.178 376.573 214.41 375.941 212.599 376.01C210.788 376.079 209.073 376.844 207.81 378.146C206.547 379.448 205.833 381.188 205.817 383.003C205.8 384.818 206.483 386.57 207.722 387.895V387.888Z" fill="#6C63FF"/>
<path d="M200.346 420.521C203.822 422.273 217.063 421.065 217.063 421.065C217.063 421.065 210.161 409.681 206.692 407.93C205.035 407.18 203.154 407.1 201.44 407.707C199.726 408.313 198.313 409.559 197.494 411.185C196.675 412.81 196.515 414.689 197.046 416.43C197.578 418.171 198.76 419.639 200.346 420.528V420.521Z" fill="#6C63FF"/>
<path d="M197.524 453.218C200.655 455.534 213.91 456.579 213.91 456.579C213.91 456.579 209.031 444.193 205.9 441.876C205.161 441.271 204.307 440.823 203.39 440.558C202.472 440.293 201.511 440.217 200.564 440.336C199.616 440.454 198.703 440.764 197.879 441.247C197.054 441.73 196.337 442.375 195.769 443.144C195.201 443.912 194.795 444.789 194.576 445.719C194.356 446.65 194.328 447.615 194.492 448.557C194.656 449.499 195.009 450.398 195.531 451.199C196.052 452 196.73 452.687 197.524 453.218V453.218Z" fill="#6C63FF"/>
<path opacity="0.5" d="M356.957 154.147H269.531V161.209H356.957V154.147Z" fill="#6C63FF"/>
<path opacity="0.5" d="M458.484 182.394H269.531V189.456H458.484V182.394Z" fill="#6C63FF"/>
<path opacity="0.5" d="M458.484 200.755H269.531V207.817H458.484V200.755Z" fill="#6C63FF"/>
<path opacity="0.4" d="M458.484 219.116H269.531V226.178H458.484V219.116Z" fill="#6C63FF"/>
<path opacity="0.4" d="M458.484 237.477H269.531V244.539H458.484V237.477Z" fill="#6C63FF"/>
<path opacity="0.3" d="M377.403 255.838H269.531V262.9H377.403V255.838Z" fill="#6C63FF"/>
<path opacity="0.3" d="M416.886 274.199H269.531V281.261H416.886V274.199Z" fill="#6C63FF"/>
</g>
<defs>
<linearGradient id="paint0_linear_66_3842" x1="74.4461" y1="250.421" x2="225.34" y2="250.421" gradientUnits="userSpaceOnUse">
<stop stop-color="#808080" stop-opacity="0.25"/>
<stop offset="0.54" stop-color="#808080" stop-opacity="0.12"/>
<stop offset="1" stop-color="#808080" stop-opacity="0.1"/>
</linearGradient>
<linearGradient id="paint1_linear_66_3842" x1="245956" y1="280247" x2="245956" y2="77563.5" gradientUnits="userSpaceOnUse">
<stop stop-color="#808080" stop-opacity="0.25"/>
<stop offset="0.54" stop-color="#808080" stop-opacity="0.12"/>
<stop offset="1" stop-color="#808080" stop-opacity="0.1"/>
</linearGradient>
<clipPath id="clip0_66_3842">
<rect width="677" height="514" fill="white" transform="translate(0.5 0.303223)"/>
</clipPath>
</defs>
</svg>
