<svg width="35" height="28" viewBox="0 0 35 28" fill="none" xmlns="http://www.w3.org/2000/svg">
<path d="M34.1455 4.0808C32.9207 4.60914 31.5878 4.98939 30.2149 5.13749C31.6403 4.29068 32.7077 2.95287 33.2168 1.37505C31.8793 2.17072 30.414 2.72866 28.886 3.02412C28.2474 2.34138 27.475 1.79748 26.617 1.42631C25.7589 1.05514 24.8337 0.864651 23.8988 0.866716C20.1163 0.866716 17.0744 3.93271 17.0744 7.69515C17.0744 8.22349 17.1384 8.75183 17.2425 9.26016C11.5788 8.96397 6.52753 6.25821 3.16936 2.11553C2.55746 3.16067 2.2368 4.35068 2.24075 5.56176C2.24075 7.9313 3.44553 10.0207 5.28273 11.2495C4.20004 11.2068 3.14271 10.9092 2.19672 10.3809V10.4649C2.19672 13.7831 4.54225 16.5329 7.66827 17.1653C7.08133 17.3178 6.47753 17.3957 5.87111 17.3974C5.42682 17.3974 5.00655 17.3534 4.58227 17.2934C5.44683 19.9991 7.96447 21.9644 10.9624 22.0284C8.61689 23.8656 5.67898 24.9463 2.48891 24.9463C1.91654 24.9463 1.3882 24.9263 0.839844 24.8623C3.86581 26.8035 7.45614 27.9243 11.3226 27.9243C23.8748 27.9243 30.7432 17.5255 30.7432 8.49967C30.7432 8.20348 30.7432 7.90728 30.7232 7.61109C32.0521 6.63846 33.2168 5.43368 34.1455 4.0808Z" fill="#2091F9"/>
</svg>
