<svg width="34" height="28" viewBox="0 0 34 28" fill="none" xmlns="http://www.w3.org/2000/svg">
<path d="M33.6845 3.68535C32.4597 4.2137 31.1269 4.59394 29.754 4.74204C31.1793 3.89523 32.2467 2.55742 32.7559 0.979599C31.4184 1.77527 29.9531 2.33321 28.4251 2.62867C27.7865 1.94593 27.0141 1.40203 26.156 1.03086C25.298 0.659692 24.3727 0.469204 23.4379 0.471269C19.6554 0.471269 16.6134 3.53726 16.6134 7.2997C16.6134 7.82804 16.6775 8.35639 16.7815 8.86472C11.1179 8.56852 6.0666 5.86277 2.70842 1.72008C2.09652 2.76522 1.77587 3.95523 1.77981 5.16632C1.77981 7.53585 2.9846 9.62521 4.82179 10.854C3.7391 10.8114 2.68177 10.5138 1.73579 9.98544V10.0695C1.73579 13.3876 4.08131 16.1374 7.20734 16.7698C6.62039 16.9223 6.01659 17.0003 5.41017 17.002C4.96588 17.002 4.54561 16.958 4.12133 16.8979C4.98589 19.6037 7.50353 21.569 10.5015 21.633C8.15595 23.4702 5.21805 24.5509 2.02798 24.5509C1.4556 24.5509 0.927262 24.5309 0.378906 24.4668C3.40487 26.4081 6.9952 27.5288 10.8617 27.5288C23.4139 27.5288 30.2823 17.1301 30.2823 8.10422C30.2823 7.80803 30.2823 7.51184 30.2623 7.21565C31.5912 6.24301 32.7559 5.03823 33.6845 3.68535Z" fill="white"/>
</svg>
